<mxfile host="app.diagrams.net" modified="2022-04-03T20:35:45.262Z" agent="5.0 (Macintosh; Intel Mac OS X 10_14_6) AppleWebKit/537.36 (KHTML, like Gecko) Chrome/99.0.4844.83 Safari/537.36" etag="f1boDSD0O6Mf_O8Ek0RE" version="17.2.6" type="github">
  <diagram id="T38JOAnIJliRwvP2kSUj" name="Page-1">
    <mxGraphModel dx="933" dy="487" grid="1" gridSize="10" guides="1" tooltips="1" connect="1" arrows="1" fold="1" page="1" pageScale="1" pageWidth="850" pageHeight="1100" math="0" shadow="0">
      <root>
        <mxCell id="0" />
        <mxCell id="1" parent="0" />
        <mxCell id="K2Y_065a5s43qrwbfFkS-1" value="" style="html=1;whiteSpace=wrap;shape=isoCube2;backgroundOutline=1;isoAngle=15;fillColor=#a20025;strokeColor=#6F0000;fontColor=#ffffff;" parent="1" vertex="1">
          <mxGeometry x="63" y="90" width="90" height="90" as="geometry" />
        </mxCell>
        <mxCell id="K2Y_065a5s43qrwbfFkS-2" value="&lt;font style=&quot;font-size: 18px&quot; color=&quot;#ffffff&quot;&gt;a&lt;/font&gt;" style="text;html=1;resizable=0;autosize=1;align=center;verticalAlign=middle;points=[];fillColor=none;strokeColor=none;rounded=0;" parent="1" vertex="1">
          <mxGeometry x="70" y="133" width="30" height="20" as="geometry" />
        </mxCell>
        <mxCell id="K2Y_065a5s43qrwbfFkS-3" value="2" style="whiteSpace=wrap;html=1;shape=mxgraph.basic.document;fontSize=18;fillColor=#a20025;strokeColor=#6F0000;fontColor=#ffffff;" parent="1" vertex="1">
          <mxGeometry x="42" y="3" width="51" height="66" as="geometry" />
        </mxCell>
        <mxCell id="K2Y_065a5s43qrwbfFkS-6" value="" style="shape=flexArrow;endArrow=classic;html=1;rounded=0;fontSize=18;fillColor=#008a00;strokeColor=#005700;" parent="1" edge="1">
          <mxGeometry width="50" height="50" relative="1" as="geometry">
            <mxPoint x="66" y="72" as="sourcePoint" />
            <mxPoint x="93" y="100" as="targetPoint" />
          </mxGeometry>
        </mxCell>
        <mxCell id="K2Y_065a5s43qrwbfFkS-8" value="" style="html=1;whiteSpace=wrap;shape=isoCube2;backgroundOutline=1;isoAngle=15;fillColor=#a20025;strokeColor=#6F0000;fontColor=#ffffff;" parent="1" vertex="1">
          <mxGeometry x="279" y="89" width="90" height="90" as="geometry" />
        </mxCell>
        <mxCell id="K2Y_065a5s43qrwbfFkS-9" value="&lt;font style=&quot;font-size: 18px&quot; color=&quot;#ffffff&quot;&gt;a&lt;/font&gt;" style="text;html=1;resizable=0;autosize=1;align=center;verticalAlign=middle;points=[];fillColor=none;strokeColor=none;rounded=0;" parent="1" vertex="1">
          <mxGeometry x="286" y="132" width="30" height="20" as="geometry" />
        </mxCell>
        <mxCell id="K2Y_065a5s43qrwbfFkS-10" value="1" style="whiteSpace=wrap;html=1;shape=mxgraph.basic.document;fontSize=18;fillColor=#a20025;strokeColor=#6F0000;fontColor=#ffffff;" parent="1" vertex="1">
          <mxGeometry x="258" y="2" width="51" height="66" as="geometry" />
        </mxCell>
        <mxCell id="K2Y_065a5s43qrwbfFkS-11" value="" style="shape=flexArrow;endArrow=classic;html=1;rounded=0;fontSize=18;fillColor=#008a00;strokeColor=#005700;" parent="1" edge="1">
          <mxGeometry width="50" height="50" relative="1" as="geometry">
            <mxPoint x="282" y="71" as="sourcePoint" />
            <mxPoint x="309" y="99" as="targetPoint" />
          </mxGeometry>
        </mxCell>
        <mxCell id="K2Y_065a5s43qrwbfFkS-12" value="" style="html=1;whiteSpace=wrap;shape=isoCube2;backgroundOutline=1;isoAngle=15;fillColor=#a20025;strokeColor=#6F0000;fontColor=#ffffff;" parent="1" vertex="1">
          <mxGeometry x="582" y="90" width="90" height="90" as="geometry" />
        </mxCell>
        <mxCell id="K2Y_065a5s43qrwbfFkS-13" value="&lt;font style=&quot;font-size: 18px&quot; color=&quot;#ffffff&quot;&gt;a&lt;/font&gt;" style="text;html=1;resizable=0;autosize=1;align=center;verticalAlign=middle;points=[];fillColor=none;strokeColor=none;rounded=0;" parent="1" vertex="1">
          <mxGeometry x="589" y="133" width="30" height="20" as="geometry" />
        </mxCell>
        <mxCell id="K2Y_065a5s43qrwbfFkS-14" value="&#39;1&#39;" style="whiteSpace=wrap;html=1;shape=mxgraph.basic.document;fontSize=18;fillColor=#a20025;strokeColor=#6F0000;fontColor=#ffffff;" parent="1" vertex="1">
          <mxGeometry x="558" y="3" width="51" height="66" as="geometry" />
        </mxCell>
        <mxCell id="K2Y_065a5s43qrwbfFkS-15" value="" style="shape=flexArrow;endArrow=classic;html=1;rounded=0;fontSize=18;fillColor=#008a00;strokeColor=#005700;" parent="1" edge="1">
          <mxGeometry width="50" height="50" relative="1" as="geometry">
            <mxPoint x="585" y="72" as="sourcePoint" />
            <mxPoint x="612" y="100" as="targetPoint" />
          </mxGeometry>
        </mxCell>
        <mxCell id="K2Y_065a5s43qrwbfFkS-17" value="&lt;font color=&quot;#ffffff&quot;&gt;&lt;span style=&quot;font-size: 18px&quot;&gt;&lt;sup&gt;?&lt;/sup&gt;&lt;/span&gt;&lt;/font&gt;" style="text;html=1;resizable=0;autosize=1;align=center;verticalAlign=middle;points=[];fillColor=none;strokeColor=none;rounded=0;" parent="1" vertex="1">
          <mxGeometry x="335" y="132" width="20" height="30" as="geometry" />
        </mxCell>
        <mxCell id="K2Y_065a5s43qrwbfFkS-18" value="&lt;font color=&quot;#ffffff&quot;&gt;&lt;span style=&quot;font-size: 18px&quot;&gt;&lt;sup&gt;?&lt;/sup&gt;&lt;/span&gt;&lt;/font&gt;" style="text;html=1;resizable=0;autosize=1;align=center;verticalAlign=middle;points=[];fillColor=none;strokeColor=none;rounded=0;" parent="1" vertex="1">
          <mxGeometry x="639" y="133" width="20" height="30" as="geometry" />
        </mxCell>
        <mxCell id="K2Y_065a5s43qrwbfFkS-19" value="" style="html=1;whiteSpace=wrap;shape=isoCube2;backgroundOutline=1;isoAngle=15;fillColor=#a20025;strokeColor=#6F0000;fontColor=#ffffff;" parent="1" vertex="1">
          <mxGeometry x="407" y="90" width="90" height="90" as="geometry" />
        </mxCell>
        <mxCell id="K2Y_065a5s43qrwbfFkS-20" value="&lt;font style=&quot;font-size: 18px&quot; color=&quot;#ffffff&quot;&gt;a&lt;/font&gt;" style="text;html=1;resizable=0;autosize=1;align=center;verticalAlign=middle;points=[];fillColor=none;strokeColor=none;rounded=0;" parent="1" vertex="1">
          <mxGeometry x="414" y="133" width="30" height="20" as="geometry" />
        </mxCell>
        <mxCell id="K2Y_065a5s43qrwbfFkS-21" value="1" style="whiteSpace=wrap;html=1;shape=mxgraph.basic.document;fontSize=18;fillColor=#a20025;strokeColor=#6F0000;fontColor=#ffffff;" parent="1" vertex="1">
          <mxGeometry x="386" y="3" width="51" height="66" as="geometry" />
        </mxCell>
        <mxCell id="K2Y_065a5s43qrwbfFkS-22" value="" style="shape=flexArrow;endArrow=classic;html=1;rounded=0;fontSize=18;fillColor=#008a00;strokeColor=#005700;" parent="1" edge="1">
          <mxGeometry width="50" height="50" relative="1" as="geometry">
            <mxPoint x="410" y="72" as="sourcePoint" />
            <mxPoint x="437" y="100" as="targetPoint" />
          </mxGeometry>
        </mxCell>
        <mxCell id="K2Y_065a5s43qrwbfFkS-24" value="" style="shape=note;whiteSpace=wrap;html=1;backgroundOutline=1;darkOpacity=0.05;fontSize=18;fontColor=#ffffff;rotation=70;size=15;fillColor=#a20025;strokeColor=#6F0000;" parent="1" vertex="1">
          <mxGeometry x="458.4" y="148.88" width="50" height="49.41" as="geometry" />
        </mxCell>
        <mxCell id="K2Y_065a5s43qrwbfFkS-25" value="&lt;font color=&quot;#ffffff&quot;&gt;&lt;span style=&quot;font-size: 18px&quot;&gt;&lt;sup&gt;int&lt;/sup&gt;&lt;/span&gt;&lt;/font&gt;" style="text;html=1;resizable=0;autosize=1;align=center;verticalAlign=middle;points=[];fillColor=none;strokeColor=none;rounded=0;" parent="1" vertex="1">
          <mxGeometry x="468.4" y="158.59" width="30" height="30" as="geometry" />
        </mxCell>
        <mxCell id="K2Y_065a5s43qrwbfFkS-27" value="" style="html=1;whiteSpace=wrap;shape=isoCube2;backgroundOutline=1;isoAngle=15;fillColor=#a20025;strokeColor=#6F0000;fontColor=#ffffff;" parent="1" vertex="1">
          <mxGeometry x="708" y="91" width="90" height="90" as="geometry" />
        </mxCell>
        <mxCell id="K2Y_065a5s43qrwbfFkS-28" value="&lt;font style=&quot;font-size: 18px&quot; color=&quot;#ffffff&quot;&gt;a&lt;/font&gt;" style="text;html=1;resizable=0;autosize=1;align=center;verticalAlign=middle;points=[];fillColor=none;strokeColor=none;rounded=0;" parent="1" vertex="1">
          <mxGeometry x="715" y="134" width="30" height="20" as="geometry" />
        </mxCell>
        <mxCell id="K2Y_065a5s43qrwbfFkS-29" value="&#39;1&#39;" style="whiteSpace=wrap;html=1;shape=mxgraph.basic.document;fontSize=18;fillColor=#a20025;strokeColor=#6F0000;fontColor=#ffffff;" parent="1" vertex="1">
          <mxGeometry x="686" y="3" width="51" height="66" as="geometry" />
        </mxCell>
        <mxCell id="K2Y_065a5s43qrwbfFkS-30" value="" style="shape=flexArrow;endArrow=classic;html=1;rounded=0;fontSize=18;fillColor=#008a00;strokeColor=#005700;" parent="1" edge="1">
          <mxGeometry width="50" height="50" relative="1" as="geometry">
            <mxPoint x="711" y="73" as="sourcePoint" />
            <mxPoint x="738" y="101" as="targetPoint" />
          </mxGeometry>
        </mxCell>
        <mxCell id="K2Y_065a5s43qrwbfFkS-32" value="&lt;font color=&quot;#ffffff&quot;&gt;&lt;span style=&quot;font-size: 18px&quot;&gt;&lt;sup&gt;str&lt;/sup&gt;&lt;/span&gt;&lt;/font&gt;" style="text;html=1;resizable=0;autosize=1;align=center;verticalAlign=middle;points=[];fillColor=none;strokeColor=none;rounded=0;" parent="1" vertex="1">
          <mxGeometry x="768" y="162.29" width="30" height="30" as="geometry" />
        </mxCell>
        <mxCell id="K2Y_065a5s43qrwbfFkS-33" value="" style="shape=note;whiteSpace=wrap;html=1;backgroundOutline=1;darkOpacity=0.05;fontSize=18;fontColor=#ffffff;rotation=70;size=15;fillColor=#a20025;strokeColor=#6F0000;" parent="1" vertex="1">
          <mxGeometry x="758" y="152" width="50" height="49.41" as="geometry" />
        </mxCell>
        <mxCell id="K2Y_065a5s43qrwbfFkS-34" value="&lt;font color=&quot;#ffffff&quot;&gt;&lt;span style=&quot;font-size: 18px&quot;&gt;&lt;sup&gt;str&lt;/sup&gt;&lt;/span&gt;&lt;/font&gt;" style="text;html=1;resizable=0;autosize=1;align=center;verticalAlign=middle;points=[];fillColor=none;strokeColor=none;rounded=0;" parent="1" vertex="1">
          <mxGeometry x="768" y="163" width="30" height="30" as="geometry" />
        </mxCell>
        <mxCell id="K2Y_065a5s43qrwbfFkS-36" value="" style="endArrow=classic;html=1;rounded=0;fontSize=18;fontColor=#FFFFFF;endSize=8;startSize=17;jumpSize=16;" parent="1" edge="1">
          <mxGeometry width="50" height="50" relative="1" as="geometry">
            <mxPoint x="329" y="79" as="sourcePoint" />
            <mxPoint x="400" y="80" as="targetPoint" />
            <Array as="points">
              <mxPoint x="329" y="79" />
            </Array>
          </mxGeometry>
        </mxCell>
        <mxCell id="K2Y_065a5s43qrwbfFkS-38" value="" style="endArrow=classic;html=1;rounded=0;fontSize=18;fontColor=#FFFFFF;endSize=8;startSize=17;jumpSize=16;" parent="1" edge="1">
          <mxGeometry width="50" height="50" relative="1" as="geometry">
            <mxPoint x="627" y="79" as="sourcePoint" />
            <mxPoint x="698" y="80" as="targetPoint" />
            <Array as="points">
              <mxPoint x="627" y="79" />
            </Array>
          </mxGeometry>
        </mxCell>
        <mxCell id="K2Y_065a5s43qrwbfFkS-41" value="" style="shape=singleArrow;direction=west;whiteSpace=wrap;html=1;fontSize=18;fontColor=#ffffff;strokeWidth=1;fillColor=#008a00;strokeColor=#005700;" parent="1" vertex="1">
          <mxGeometry x="464.4" y="138" width="21.6" height="20" as="geometry" />
        </mxCell>
        <mxCell id="K2Y_065a5s43qrwbfFkS-42" value="" style="shape=singleArrow;direction=west;whiteSpace=wrap;html=1;fontSize=18;fontColor=#ffffff;strokeWidth=1;fillColor=#008a00;strokeColor=#005700;" parent="1" vertex="1">
          <mxGeometry x="767.4" y="140" width="21.6" height="20" as="geometry" />
        </mxCell>
        <mxCell id="K2Y_065a5s43qrwbfFkS-43" value="" style="html=1;whiteSpace=wrap;shape=isoCube2;backgroundOutline=1;isoAngle=15;fillColor=#a20025;strokeColor=#6F0000;fontColor=#ffffff;" parent="1" vertex="1">
          <mxGeometry x="84" y="309" width="156" height="110" as="geometry" />
        </mxCell>
        <mxCell id="K2Y_065a5s43qrwbfFkS-44" value="&lt;font style=&quot;font-size: 18px&quot; color=&quot;#ffffff&quot;&gt;a&lt;/font&gt;" style="text;html=1;resizable=0;autosize=1;align=center;verticalAlign=middle;points=[];fillColor=none;strokeColor=none;rounded=0;" parent="1" vertex="1">
          <mxGeometry x="102" y="372" width="30" height="20" as="geometry" />
        </mxCell>
        <mxCell id="K2Y_065a5s43qrwbfFkS-45" value="&#39;Hello&#39;" style="whiteSpace=wrap;html=1;shape=mxgraph.basic.document;fontSize=18;fillColor=#a20025;strokeColor=#6F0000;fontColor=#ffffff;" parent="1" vertex="1">
          <mxGeometry x="41" y="259" width="97" height="48" as="geometry" />
        </mxCell>
        <mxCell id="K2Y_065a5s43qrwbfFkS-46" value="" style="shape=flexArrow;endArrow=classic;html=1;rounded=0;fontSize=18;fillColor=#008a00;strokeColor=#005700;" parent="1" edge="1">
          <mxGeometry width="50" height="50" relative="1" as="geometry">
            <mxPoint x="87" y="311" as="sourcePoint" />
            <mxPoint x="114" y="339" as="targetPoint" />
          </mxGeometry>
        </mxCell>
        <mxCell id="K2Y_065a5s43qrwbfFkS-50" value="" style="shape=flexArrow;endArrow=classic;html=1;rounded=0;fontSize=18;fillColor=#008a00;strokeColor=#005700;" parent="1" edge="1">
          <mxGeometry width="50" height="50" relative="1" as="geometry">
            <mxPoint x="366" y="311" as="sourcePoint" />
            <mxPoint x="393" y="339" as="targetPoint" />
          </mxGeometry>
        </mxCell>
        <mxCell id="K2Y_065a5s43qrwbfFkS-51" value="" style="html=1;whiteSpace=wrap;shape=isoCube2;backgroundOutline=1;isoAngle=15;fillColor=#a20025;strokeColor=#6F0000;fontColor=#ffffff;" parent="1" vertex="1">
          <mxGeometry x="357" y="315" width="156" height="110" as="geometry" />
        </mxCell>
        <mxCell id="K2Y_065a5s43qrwbfFkS-52" value="&lt;font style=&quot;font-size: 18px&quot; color=&quot;#ffffff&quot;&gt;a&lt;/font&gt;" style="text;html=1;resizable=0;autosize=1;align=center;verticalAlign=middle;points=[];fillColor=none;strokeColor=none;rounded=0;" parent="1" vertex="1">
          <mxGeometry x="378" y="379" width="30" height="20" as="geometry" />
        </mxCell>
        <mxCell id="K2Y_065a5s43qrwbfFkS-54" value="&#39;Ciao&#39;" style="whiteSpace=wrap;html=1;shape=mxgraph.basic.document;fontSize=18;fillColor=#a20025;strokeColor=#6F0000;fontColor=#ffffff;" parent="1" vertex="1">
          <mxGeometry x="320" y="259" width="97" height="48" as="geometry" />
        </mxCell>
        <mxCell id="K2Y_065a5s43qrwbfFkS-55" value="" style="html=1;whiteSpace=wrap;shape=isoCube2;backgroundOutline=1;isoAngle=15;fillColor=#a20025;strokeColor=#6F0000;fontColor=#ffffff;" parent="1" vertex="1">
          <mxGeometry x="63" y="569" width="90" height="90" as="geometry" />
        </mxCell>
        <mxCell id="K2Y_065a5s43qrwbfFkS-56" value="&lt;font style=&quot;font-size: 18px&quot; color=&quot;#ffffff&quot;&gt;a&lt;/font&gt;" style="text;html=1;resizable=0;autosize=1;align=center;verticalAlign=middle;points=[];fillColor=none;strokeColor=none;rounded=0;" parent="1" vertex="1">
          <mxGeometry x="70" y="612" width="30" height="20" as="geometry" />
        </mxCell>
        <mxCell id="K2Y_065a5s43qrwbfFkS-57" value="&lt;font style=&quot;font-size: 17px&quot;&gt;‘暑’&lt;/font&gt;" style="whiteSpace=wrap;html=1;shape=mxgraph.basic.document;fontSize=18;fillColor=#a20025;strokeColor=#6F0000;fontColor=#ffffff;" parent="1" vertex="1">
          <mxGeometry x="42" y="482" width="51" height="66" as="geometry" />
        </mxCell>
        <mxCell id="K2Y_065a5s43qrwbfFkS-58" value="" style="shape=flexArrow;endArrow=classic;html=1;rounded=0;fontSize=18;fillColor=#008a00;strokeColor=#005700;" parent="1" edge="1">
          <mxGeometry width="50" height="50" relative="1" as="geometry">
            <mxPoint x="66" y="551" as="sourcePoint" />
            <mxPoint x="93" y="579" as="targetPoint" />
          </mxGeometry>
        </mxCell>
        <mxCell id="K2Y_065a5s43qrwbfFkS-59" value="" style="html=1;whiteSpace=wrap;shape=isoCube2;backgroundOutline=1;isoAngle=15;fillColor=#a20025;strokeColor=#6F0000;fontColor=#ffffff;" parent="1" vertex="1">
          <mxGeometry x="225" y="570" width="90" height="90" as="geometry" />
        </mxCell>
        <mxCell id="K2Y_065a5s43qrwbfFkS-60" value="&lt;font style=&quot;font-size: 18px&quot; color=&quot;#ffffff&quot;&gt;b&lt;/font&gt;" style="text;html=1;resizable=0;autosize=1;align=center;verticalAlign=middle;points=[];fillColor=none;strokeColor=none;rounded=0;" parent="1" vertex="1">
          <mxGeometry x="232" y="613" width="30" height="20" as="geometry" />
        </mxCell>
        <mxCell id="K2Y_065a5s43qrwbfFkS-61" value="&lt;font style=&quot;font-size: 17px&quot;&gt;‘假’&lt;/font&gt;" style="whiteSpace=wrap;html=1;shape=mxgraph.basic.document;fontSize=18;fillColor=#a20025;strokeColor=#6F0000;fontColor=#ffffff;" parent="1" vertex="1">
          <mxGeometry x="204" y="483" width="51" height="66" as="geometry" />
        </mxCell>
        <mxCell id="K2Y_065a5s43qrwbfFkS-62" value="" style="shape=flexArrow;endArrow=classic;html=1;rounded=0;fontSize=18;fillColor=#008a00;strokeColor=#005700;" parent="1" edge="1">
          <mxGeometry width="50" height="50" relative="1" as="geometry">
            <mxPoint x="228" y="552" as="sourcePoint" />
            <mxPoint x="255" y="580" as="targetPoint" />
          </mxGeometry>
        </mxCell>
        <mxCell id="K2Y_065a5s43qrwbfFkS-63" value="&lt;font style=&quot;font-size: 18px&quot;&gt;+&lt;/font&gt;" style="text;html=1;resizable=0;autosize=1;align=center;verticalAlign=middle;points=[];fillColor=none;strokeColor=none;rounded=0;" parent="1" vertex="1">
          <mxGeometry x="171" y="606" width="30" height="20" as="geometry" />
        </mxCell>
        <mxCell id="K2Y_065a5s43qrwbfFkS-64" value="" style="shape=flexArrow;endArrow=classic;html=1;rounded=0;fontSize=18;fillColor=#008a00;strokeColor=#005700;" parent="1" edge="1">
          <mxGeometry width="50" height="50" relative="1" as="geometry">
            <mxPoint x="460" y="534" as="sourcePoint" />
            <mxPoint x="487" y="562" as="targetPoint" />
          </mxGeometry>
        </mxCell>
        <mxCell id="K2Y_065a5s43qrwbfFkS-65" value="" style="html=1;whiteSpace=wrap;shape=isoCube2;backgroundOutline=1;isoAngle=15;fillColor=#a20025;strokeColor=#6F0000;fontColor=#ffffff;" parent="1" vertex="1">
          <mxGeometry x="451" y="538" width="156" height="110" as="geometry" />
        </mxCell>
        <mxCell id="K2Y_065a5s43qrwbfFkS-66" value="&lt;font style=&quot;font-size: 18px&quot; color=&quot;#ffffff&quot;&gt;c&lt;/font&gt;" style="text;html=1;resizable=0;autosize=1;align=center;verticalAlign=middle;points=[];fillColor=none;strokeColor=none;rounded=0;" parent="1" vertex="1">
          <mxGeometry x="477" y="602" width="20" height="20" as="geometry" />
        </mxCell>
        <mxCell id="K2Y_065a5s43qrwbfFkS-67" value="‘暑假’" style="whiteSpace=wrap;html=1;shape=mxgraph.basic.document;fontSize=18;fillColor=#a20025;strokeColor=#6F0000;fontColor=#ffffff;" parent="1" vertex="1">
          <mxGeometry x="414" y="482" width="97" height="48" as="geometry" />
        </mxCell>
        <mxCell id="K2Y_065a5s43qrwbfFkS-69" value="" style="shape=singleArrow;whiteSpace=wrap;html=1;fontSize=17;fontColor=#ffffff;strokeWidth=1;fillColor=#008a00;strokeColor=#005700;" parent="1" vertex="1">
          <mxGeometry x="355" y="596" width="70" height="40" as="geometry" />
        </mxCell>
        <mxCell id="K2Y_065a5s43qrwbfFkS-70" value="" style="html=1;whiteSpace=wrap;shape=isoCube2;backgroundOutline=1;isoAngle=15;fillColor=#a20025;strokeColor=#6F0000;fontColor=#ffffff;" parent="1" vertex="1">
          <mxGeometry x="63" y="808" width="90" height="90" as="geometry" />
        </mxCell>
        <mxCell id="K2Y_065a5s43qrwbfFkS-71" value="&lt;font style=&quot;font-size: 18px&quot; color=&quot;#ffffff&quot;&gt;a&lt;/font&gt;" style="text;html=1;resizable=0;autosize=1;align=center;verticalAlign=middle;points=[];fillColor=none;strokeColor=none;rounded=0;" parent="1" vertex="1">
          <mxGeometry x="70" y="851" width="30" height="20" as="geometry" />
        </mxCell>
        <mxCell id="K2Y_065a5s43qrwbfFkS-72" value="&lt;font style=&quot;font-size: 17px&quot;&gt;&#39;Hey!&#39;&lt;/font&gt;" style="whiteSpace=wrap;html=1;shape=mxgraph.basic.document;fontSize=18;fillColor=#a20025;strokeColor=#6F0000;fontColor=#ffffff;" parent="1" vertex="1">
          <mxGeometry x="32" y="740" width="80" height="47" as="geometry" />
        </mxCell>
        <mxCell id="K2Y_065a5s43qrwbfFkS-73" value="" style="shape=flexArrow;endArrow=classic;html=1;rounded=0;fontSize=18;fillColor=#008a00;strokeColor=#005700;" parent="1" edge="1">
          <mxGeometry width="50" height="50" relative="1" as="geometry">
            <mxPoint x="66" y="790" as="sourcePoint" />
            <mxPoint x="93" y="818" as="targetPoint" />
          </mxGeometry>
        </mxCell>
        <mxCell id="K2Y_065a5s43qrwbfFkS-75" value="" style="html=1;whiteSpace=wrap;shape=isoCube2;backgroundOutline=1;isoAngle=15;fillColor=#a20025;strokeColor=#6F0000;fontColor=#ffffff;" parent="1" vertex="1">
          <mxGeometry x="374.4" y="808" width="90" height="90" as="geometry" />
        </mxCell>
        <mxCell id="K2Y_065a5s43qrwbfFkS-76" value="&lt;font style=&quot;font-size: 18px&quot; color=&quot;#ffffff&quot;&gt;a&lt;/font&gt;" style="text;html=1;resizable=0;autosize=1;align=center;verticalAlign=middle;points=[];fillColor=none;strokeColor=none;rounded=0;" parent="1" vertex="1">
          <mxGeometry x="381.4" y="851" width="30" height="20" as="geometry" />
        </mxCell>
        <mxCell id="K2Y_065a5s43qrwbfFkS-77" value="&lt;font style=&quot;font-size: 17px&quot;&gt;&#39;Hey!&lt;/font&gt;&lt;span style=&quot;font-size: 17px&quot;&gt;Hey!&lt;/span&gt;&lt;span style=&quot;font-size: 17px&quot;&gt;Hey!&#39;&lt;/span&gt;" style="whiteSpace=wrap;html=1;shape=mxgraph.basic.document;fontSize=18;fillColor=#a20025;strokeColor=#6F0000;fontColor=#ffffff;" parent="1" vertex="1">
          <mxGeometry x="306" y="740" width="150" height="47" as="geometry" />
        </mxCell>
        <mxCell id="K2Y_065a5s43qrwbfFkS-78" value="" style="shape=flexArrow;endArrow=classic;html=1;rounded=0;fontSize=18;fillColor=#008a00;strokeColor=#005700;" parent="1" edge="1">
          <mxGeometry width="50" height="50" relative="1" as="geometry">
            <mxPoint x="377.4" y="790" as="sourcePoint" />
            <mxPoint x="404.4" y="818" as="targetPoint" />
          </mxGeometry>
        </mxCell>
        <mxCell id="K2Y_065a5s43qrwbfFkS-79" value="" style="shape=singleArrow;whiteSpace=wrap;html=1;fontSize=17;fontColor=#ffffff;strokeWidth=1;fillColor=#008a00;strokeColor=#005700;" parent="1" vertex="1">
          <mxGeometry x="190" y="831" width="140" height="40" as="geometry" />
        </mxCell>
        <mxCell id="K2Y_065a5s43qrwbfFkS-80" value="&lt;font style=&quot;font-size: 18px&quot;&gt;x3&lt;/font&gt;" style="text;html=1;resizable=0;autosize=1;align=center;verticalAlign=middle;points=[];fillColor=none;strokeColor=none;rounded=0;" parent="1" vertex="1">
          <mxGeometry x="234" y="820" width="30" height="20" as="geometry" />
        </mxCell>
        <mxCell id="K2Y_065a5s43qrwbfFkS-81" value="p" style="whiteSpace=wrap;html=1;aspect=fixed;fontSize=17;fontColor=#ffffff;strokeWidth=1;fillColor=#a20025;strokeColor=#6F0000;" parent="1" vertex="1">
          <mxGeometry x="64" y="999" width="58" height="58" as="geometry" />
        </mxCell>
        <mxCell id="K2Y_065a5s43qrwbfFkS-82" value="a" style="whiteSpace=wrap;html=1;aspect=fixed;fontSize=17;fontColor=#ffffff;strokeWidth=1;fillColor=#a20025;strokeColor=#6F0000;" parent="1" vertex="1">
          <mxGeometry x="122" y="999" width="58" height="58" as="geometry" />
        </mxCell>
        <mxCell id="K2Y_065a5s43qrwbfFkS-83" value="c" style="whiteSpace=wrap;html=1;aspect=fixed;fontSize=17;fontColor=#ffffff;strokeWidth=1;fillColor=#a20025;strokeColor=#6F0000;" parent="1" vertex="1">
          <mxGeometry x="180" y="999" width="58" height="58" as="geometry" />
        </mxCell>
        <mxCell id="K2Y_065a5s43qrwbfFkS-84" value="k" style="whiteSpace=wrap;html=1;aspect=fixed;fontSize=17;fontColor=#ffffff;strokeWidth=1;fillColor=#a20025;strokeColor=#6F0000;" parent="1" vertex="1">
          <mxGeometry x="238" y="999" width="58" height="58" as="geometry" />
        </mxCell>
        <mxCell id="K2Y_065a5s43qrwbfFkS-85" value="a" style="whiteSpace=wrap;html=1;aspect=fixed;fontSize=17;fontColor=#ffffff;strokeWidth=1;fillColor=#a20025;strokeColor=#6F0000;" parent="1" vertex="1">
          <mxGeometry x="296" y="999" width="58" height="58" as="geometry" />
        </mxCell>
        <mxCell id="K2Y_065a5s43qrwbfFkS-86" value="g" style="whiteSpace=wrap;html=1;aspect=fixed;fontSize=17;fontColor=#ffffff;strokeWidth=1;fillColor=#a20025;strokeColor=#6F0000;" parent="1" vertex="1">
          <mxGeometry x="350.4" y="999" width="58" height="58" as="geometry" />
        </mxCell>
        <mxCell id="K2Y_065a5s43qrwbfFkS-87" value="e" style="whiteSpace=wrap;html=1;aspect=fixed;fontSize=17;fontColor=#ffffff;strokeWidth=1;fillColor=#a20025;strokeColor=#6F0000;" parent="1" vertex="1">
          <mxGeometry x="407.4" y="999" width="58" height="58" as="geometry" />
        </mxCell>
        <mxCell id="K2Y_065a5s43qrwbfFkS-91" value="" style="html=1;shadow=0;dashed=0;align=center;verticalAlign=middle;shape=mxgraph.arrows2.arrow;dy=0.6;dx=40;notch=0;fontSize=17;fontColor=#000000;strokeWidth=1;fillColor=none;" parent="1" vertex="1">
          <mxGeometry x="64" y="929" width="396" height="70" as="geometry" />
        </mxCell>
        <mxCell id="K2Y_065a5s43qrwbfFkS-92" value="" style="html=1;shadow=0;dashed=0;align=center;verticalAlign=middle;shape=mxgraph.arrows2.arrow;dy=0.6;dx=40;flipH=1;notch=0;fontSize=17;fontColor=#000000;strokeWidth=1;" parent="1" vertex="1">
          <mxGeometry x="66" y="1058" width="400" height="70" as="geometry" />
        </mxCell>
        <mxCell id="K2Y_065a5s43qrwbfFkS-93" value="0" style="text;html=1;resizable=0;autosize=1;align=center;verticalAlign=middle;points=[];fillColor=none;strokeColor=none;rounded=0;fontSize=17;fontColor=#000000;" parent="1" vertex="1">
          <mxGeometry x="80.5" y="949" width="20" height="30" as="geometry" />
        </mxCell>
        <mxCell id="K2Y_065a5s43qrwbfFkS-94" value="1" style="text;html=1;resizable=0;autosize=1;align=center;verticalAlign=middle;points=[];fillColor=none;strokeColor=none;rounded=0;fontSize=17;fontColor=#000000;" parent="1" vertex="1">
          <mxGeometry x="138.5" y="950" width="20" height="30" as="geometry" />
        </mxCell>
        <mxCell id="K2Y_065a5s43qrwbfFkS-95" value="2" style="text;html=1;resizable=0;autosize=1;align=center;verticalAlign=middle;points=[];fillColor=none;strokeColor=none;rounded=0;fontSize=17;fontColor=#000000;" parent="1" vertex="1">
          <mxGeometry x="196.5" y="950" width="20" height="30" as="geometry" />
        </mxCell>
        <mxCell id="K2Y_065a5s43qrwbfFkS-96" value="3" style="text;html=1;resizable=0;autosize=1;align=center;verticalAlign=middle;points=[];fillColor=none;strokeColor=none;rounded=0;fontSize=17;fontColor=#000000;" parent="1" vertex="1">
          <mxGeometry x="254.5" y="950" width="20" height="30" as="geometry" />
        </mxCell>
        <mxCell id="K2Y_065a5s43qrwbfFkS-97" value="4" style="text;html=1;resizable=0;autosize=1;align=center;verticalAlign=middle;points=[];fillColor=none;strokeColor=none;rounded=0;fontSize=17;fontColor=#000000;" parent="1" vertex="1">
          <mxGeometry x="312.5" y="950" width="20" height="30" as="geometry" />
        </mxCell>
        <mxCell id="K2Y_065a5s43qrwbfFkS-98" value="5" style="text;html=1;resizable=0;autosize=1;align=center;verticalAlign=middle;points=[];fillColor=none;strokeColor=none;rounded=0;fontSize=17;fontColor=#000000;" parent="1" vertex="1">
          <mxGeometry x="366.5" y="950" width="20" height="30" as="geometry" />
        </mxCell>
        <mxCell id="K2Y_065a5s43qrwbfFkS-99" value="6" style="text;html=1;resizable=0;autosize=1;align=center;verticalAlign=middle;points=[];fillColor=none;strokeColor=none;rounded=0;fontSize=17;fontColor=#000000;" parent="1" vertex="1">
          <mxGeometry x="425" y="950" width="20" height="30" as="geometry" />
        </mxCell>
        <mxCell id="K2Y_065a5s43qrwbfFkS-100" value="-7" style="text;html=1;resizable=0;autosize=1;align=center;verticalAlign=middle;points=[];fillColor=none;strokeColor=none;rounded=0;fontSize=17;fontColor=#000000;" parent="1" vertex="1">
          <mxGeometry x="78.5" y="1079" width="30" height="30" as="geometry" />
        </mxCell>
        <mxCell id="K2Y_065a5s43qrwbfFkS-101" value="-6" style="text;html=1;resizable=0;autosize=1;align=center;verticalAlign=middle;points=[];fillColor=none;strokeColor=none;rounded=0;fontSize=17;fontColor=#000000;" parent="1" vertex="1">
          <mxGeometry x="136.5" y="1080" width="30" height="30" as="geometry" />
        </mxCell>
        <mxCell id="K2Y_065a5s43qrwbfFkS-102" value="-5" style="text;html=1;resizable=0;autosize=1;align=center;verticalAlign=middle;points=[];fillColor=none;strokeColor=none;rounded=0;fontSize=17;fontColor=#000000;" parent="1" vertex="1">
          <mxGeometry x="194.5" y="1080" width="30" height="30" as="geometry" />
        </mxCell>
        <mxCell id="K2Y_065a5s43qrwbfFkS-103" value="-4" style="text;html=1;resizable=0;autosize=1;align=center;verticalAlign=middle;points=[];fillColor=none;strokeColor=none;rounded=0;fontSize=17;fontColor=#000000;" parent="1" vertex="1">
          <mxGeometry x="252.5" y="1080" width="30" height="30" as="geometry" />
        </mxCell>
        <mxCell id="K2Y_065a5s43qrwbfFkS-104" value="-3" style="text;html=1;resizable=0;autosize=1;align=center;verticalAlign=middle;points=[];fillColor=none;strokeColor=none;rounded=0;fontSize=17;fontColor=#000000;" parent="1" vertex="1">
          <mxGeometry x="310.5" y="1080" width="30" height="30" as="geometry" />
        </mxCell>
        <mxCell id="K2Y_065a5s43qrwbfFkS-105" value="-2" style="text;html=1;resizable=0;autosize=1;align=center;verticalAlign=middle;points=[];fillColor=none;strokeColor=none;rounded=0;fontSize=17;fontColor=#000000;" parent="1" vertex="1">
          <mxGeometry x="364.5" y="1080" width="30" height="30" as="geometry" />
        </mxCell>
        <mxCell id="K2Y_065a5s43qrwbfFkS-106" value="-1" style="text;html=1;resizable=0;autosize=1;align=center;verticalAlign=middle;points=[];fillColor=none;strokeColor=none;rounded=0;fontSize=17;fontColor=#000000;" parent="1" vertex="1">
          <mxGeometry x="423" y="1080" width="30" height="30" as="geometry" />
        </mxCell>
        <mxCell id="K2Y_065a5s43qrwbfFkS-110" value="&lt;font style=&quot;font-size: 17px&quot;&gt;3&lt;/font&gt;" style="whiteSpace=wrap;html=1;shape=mxgraph.basic.document;fontSize=18;fillColor=#a20025;strokeColor=#6F0000;fontColor=#ffffff;" parent="1" vertex="1">
          <mxGeometry x="65" y="1200" width="58" height="66" as="geometry" />
        </mxCell>
        <mxCell id="K2Y_065a5s43qrwbfFkS-111" value="%d" style="html=1;shadow=0;dashed=0;align=center;verticalAlign=middle;shape=mxgraph.arrows2.arrow;dy=0.7;dx=17;notch=0;fontSize=17;fontColor=#000000;strokeWidth=1;fillColor=none;gradientColor=#ffffff;" parent="1" vertex="1">
          <mxGeometry x="131.5" y="1205" width="100" height="60" as="geometry" />
        </mxCell>
        <mxCell id="K2Y_065a5s43qrwbfFkS-112" value="&lt;font style=&quot;font-size: 17px&quot;&gt;&#39;3&#39;&lt;/font&gt;" style="whiteSpace=wrap;html=1;shape=mxgraph.basic.document;fontSize=18;fillColor=#a20025;strokeColor=#6F0000;fontColor=#ffffff;" parent="1" vertex="1">
          <mxGeometry x="240" y="1202" width="58" height="66" as="geometry" />
        </mxCell>
        <mxCell id="P3jrlNCNbD_zV1xF18dy-1" value="" style="html=1;whiteSpace=wrap;shape=isoCube2;backgroundOutline=1;isoAngle=15;fillColor=#a20025;strokeColor=#6F0000;fontColor=#ffffff;" vertex="1" parent="1">
          <mxGeometry x="69" y="1440" width="90" height="90" as="geometry" />
        </mxCell>
        <mxCell id="P3jrlNCNbD_zV1xF18dy-2" value="" style="html=1;whiteSpace=wrap;shape=isoCube2;backgroundOutline=1;isoAngle=15;fillColor=#a20025;strokeColor=#6F0000;fontColor=#ffffff;" vertex="1" parent="1">
          <mxGeometry x="112.5" y="1420" width="90" height="90" as="geometry" />
        </mxCell>
        <mxCell id="P3jrlNCNbD_zV1xF18dy-3" value="" style="html=1;whiteSpace=wrap;shape=isoCube2;backgroundOutline=1;isoAngle=15;fillColor=#a20025;strokeColor=#6F0000;fontColor=#ffffff;" vertex="1" parent="1">
          <mxGeometry x="157" y="1400" width="90" height="90" as="geometry" />
        </mxCell>
        <mxCell id="P3jrlNCNbD_zV1xF18dy-4" value="" style="html=1;whiteSpace=wrap;shape=isoCube2;backgroundOutline=1;isoAngle=15;fillColor=#a20025;strokeColor=#6F0000;fontColor=#ffffff;" vertex="1" parent="1">
          <mxGeometry x="200.5" y="1380" width="90" height="90" as="geometry" />
        </mxCell>
        <mxCell id="P3jrlNCNbD_zV1xF18dy-6" value="2" style="whiteSpace=wrap;html=1;shape=mxgraph.basic.document;fontSize=18;fillColor=#a20025;strokeColor=#6F0000;fontColor=#ffffff;" vertex="1" parent="1">
          <mxGeometry x="40" y="1354" width="51" height="66" as="geometry" />
        </mxCell>
        <mxCell id="P3jrlNCNbD_zV1xF18dy-7" value="" style="shape=flexArrow;endArrow=classic;html=1;rounded=0;fontSize=18;fillColor=#008a00;strokeColor=#005700;" edge="1" parent="1">
          <mxGeometry width="50" height="50" relative="1" as="geometry">
            <mxPoint x="64.5" y="1424" as="sourcePoint" />
            <mxPoint x="91.5" y="1452" as="targetPoint" />
          </mxGeometry>
        </mxCell>
        <mxCell id="P3jrlNCNbD_zV1xF18dy-8" value="" style="html=1;whiteSpace=wrap;shape=isoCube2;backgroundOutline=1;isoAngle=15;fillColor=#a20025;strokeColor=#6F0000;fontColor=#ffffff;" vertex="1" parent="1">
          <mxGeometry x="367.5" y="1440" width="90" height="90" as="geometry" />
        </mxCell>
        <mxCell id="P3jrlNCNbD_zV1xF18dy-9" value="" style="html=1;whiteSpace=wrap;shape=isoCube2;backgroundOutline=1;isoAngle=15;fillColor=#a20025;strokeColor=#6F0000;fontColor=#ffffff;" vertex="1" parent="1">
          <mxGeometry x="411" y="1420" width="90" height="90" as="geometry" />
        </mxCell>
        <mxCell id="P3jrlNCNbD_zV1xF18dy-10" value="" style="html=1;whiteSpace=wrap;shape=isoCube2;backgroundOutline=1;isoAngle=15;fillColor=#a20025;strokeColor=#6F0000;fontColor=#ffffff;" vertex="1" parent="1">
          <mxGeometry x="455.5" y="1400" width="90" height="90" as="geometry" />
        </mxCell>
        <mxCell id="P3jrlNCNbD_zV1xF18dy-11" value="" style="html=1;whiteSpace=wrap;shape=isoCube2;backgroundOutline=1;isoAngle=15;fillColor=#a20025;strokeColor=#6F0000;fontColor=#ffffff;" vertex="1" parent="1">
          <mxGeometry x="499" y="1380" width="90" height="90" as="geometry" />
        </mxCell>
        <mxCell id="P3jrlNCNbD_zV1xF18dy-12" value="1" style="whiteSpace=wrap;html=1;shape=mxgraph.basic.document;fontSize=18;fillColor=#a20025;strokeColor=#6F0000;fontColor=#ffffff;" vertex="1" parent="1">
          <mxGeometry x="334.5" y="1354" width="51" height="66" as="geometry" />
        </mxCell>
        <mxCell id="P3jrlNCNbD_zV1xF18dy-13" value="" style="shape=flexArrow;endArrow=classic;html=1;rounded=0;fontSize=18;fillColor=#008a00;strokeColor=#005700;" edge="1" parent="1">
          <mxGeometry width="50" height="50" relative="1" as="geometry">
            <mxPoint x="363" y="1424" as="sourcePoint" />
            <mxPoint x="390" y="1452" as="targetPoint" />
          </mxGeometry>
        </mxCell>
        <mxCell id="P3jrlNCNbD_zV1xF18dy-14" value="2" style="whiteSpace=wrap;html=1;shape=mxgraph.basic.document;fontSize=18;fillColor=#a20025;strokeColor=#6F0000;fontColor=#ffffff;" vertex="1" parent="1">
          <mxGeometry x="384.5" y="1333" width="51" height="66" as="geometry" />
        </mxCell>
        <mxCell id="P3jrlNCNbD_zV1xF18dy-15" value="" style="shape=flexArrow;endArrow=classic;html=1;rounded=0;fontSize=18;fillColor=#008a00;strokeColor=#005700;" edge="1" parent="1">
          <mxGeometry width="50" height="50" relative="1" as="geometry">
            <mxPoint x="410" y="1403" as="sourcePoint" />
            <mxPoint x="437" y="1431" as="targetPoint" />
          </mxGeometry>
        </mxCell>
        <mxCell id="P3jrlNCNbD_zV1xF18dy-16" value="3" style="whiteSpace=wrap;html=1;shape=mxgraph.basic.document;fontSize=18;fillColor=#a20025;strokeColor=#6F0000;fontColor=#ffffff;" vertex="1" parent="1">
          <mxGeometry x="432.5" y="1310" width="51" height="66" as="geometry" />
        </mxCell>
        <mxCell id="P3jrlNCNbD_zV1xF18dy-17" value="" style="shape=flexArrow;endArrow=classic;html=1;rounded=0;fontSize=18;fillColor=#008a00;strokeColor=#005700;" edge="1" parent="1">
          <mxGeometry width="50" height="50" relative="1" as="geometry">
            <mxPoint x="457" y="1380" as="sourcePoint" />
            <mxPoint x="484" y="1408" as="targetPoint" />
          </mxGeometry>
        </mxCell>
        <mxCell id="P3jrlNCNbD_zV1xF18dy-18" value="4" style="whiteSpace=wrap;html=1;shape=mxgraph.basic.document;fontSize=18;fillColor=#a20025;strokeColor=#6F0000;fontColor=#ffffff;" vertex="1" parent="1">
          <mxGeometry x="482.5" y="1290" width="51" height="66" as="geometry" />
        </mxCell>
        <mxCell id="P3jrlNCNbD_zV1xF18dy-19" value="" style="shape=flexArrow;endArrow=classic;html=1;rounded=0;fontSize=18;fillColor=#008a00;strokeColor=#005700;" edge="1" parent="1">
          <mxGeometry width="50" height="50" relative="1" as="geometry">
            <mxPoint x="501" y="1360" as="sourcePoint" />
            <mxPoint x="528" y="1388" as="targetPoint" />
          </mxGeometry>
        </mxCell>
        <mxCell id="P3jrlNCNbD_zV1xF18dy-20" value="&lt;font color=&quot;#ffffff&quot;&gt;a[0]&lt;/font&gt;" style="text;html=1;resizable=0;autosize=1;align=center;verticalAlign=middle;points=[];fillColor=none;strokeColor=none;rounded=0;fontSize=17;fontColor=#000000;" vertex="1" parent="1">
          <mxGeometry x="414" y="1478" width="40" height="30" as="geometry" />
        </mxCell>
        <mxCell id="P3jrlNCNbD_zV1xF18dy-21" value="&lt;font color=&quot;#ffffff&quot;&gt;a[1]&lt;/font&gt;" style="text;html=1;resizable=0;autosize=1;align=center;verticalAlign=middle;points=[];fillColor=none;strokeColor=none;rounded=0;fontSize=17;fontColor=#000000;" vertex="1" parent="1">
          <mxGeometry x="459" y="1458" width="40" height="30" as="geometry" />
        </mxCell>
        <mxCell id="P3jrlNCNbD_zV1xF18dy-22" value="&lt;font color=&quot;#ffffff&quot;&gt;a[2]&lt;/font&gt;" style="text;html=1;resizable=0;autosize=1;align=center;verticalAlign=middle;points=[];fillColor=none;strokeColor=none;rounded=0;fontSize=17;fontColor=#000000;" vertex="1" parent="1">
          <mxGeometry x="502" y="1438" width="40" height="30" as="geometry" />
        </mxCell>
        <mxCell id="P3jrlNCNbD_zV1xF18dy-23" value="&lt;font color=&quot;#ffffff&quot;&gt;a[3]&lt;/font&gt;" style="text;html=1;resizable=0;autosize=1;align=center;verticalAlign=middle;points=[];fillColor=none;strokeColor=none;rounded=0;fontSize=17;fontColor=#000000;" vertex="1" parent="1">
          <mxGeometry x="547" y="1421" width="40" height="30" as="geometry" />
        </mxCell>
        <mxCell id="P3jrlNCNbD_zV1xF18dy-24" value="&lt;font color=&quot;#ffffff&quot;&gt;a&lt;/font&gt;" style="text;html=1;resizable=0;autosize=1;align=center;verticalAlign=middle;points=[];fillColor=none;strokeColor=none;rounded=0;fontSize=17;fontColor=#000000;" vertex="1" parent="1">
          <mxGeometry x="381" y="1481" width="20" height="30" as="geometry" />
        </mxCell>
        <mxCell id="P3jrlNCNbD_zV1xF18dy-31" value="" style="html=1;whiteSpace=wrap;shape=isoCube2;backgroundOutline=1;isoAngle=15;fillColor=#a20025;strokeColor=#6F0000;fontColor=#ffffff;" vertex="1" parent="1">
          <mxGeometry x="103" y="1780" width="90" height="90" as="geometry" />
        </mxCell>
        <mxCell id="P3jrlNCNbD_zV1xF18dy-32" value="" style="html=1;whiteSpace=wrap;shape=isoCube2;backgroundOutline=1;isoAngle=15;fillColor=#a20025;strokeColor=#6F0000;fontColor=#ffffff;" vertex="1" parent="1">
          <mxGeometry x="146.5" y="1760" width="90" height="90" as="geometry" />
        </mxCell>
        <mxCell id="P3jrlNCNbD_zV1xF18dy-33" value="" style="html=1;whiteSpace=wrap;shape=isoCube2;backgroundOutline=1;isoAngle=15;fillColor=#a20025;strokeColor=#6F0000;fontColor=#ffffff;" vertex="1" parent="1">
          <mxGeometry x="191" y="1740" width="90" height="90" as="geometry" />
        </mxCell>
        <mxCell id="P3jrlNCNbD_zV1xF18dy-35" value="1" style="whiteSpace=wrap;html=1;shape=mxgraph.basic.document;fontSize=18;fillColor=#a20025;strokeColor=#6F0000;fontColor=#ffffff;" vertex="1" parent="1">
          <mxGeometry x="70" y="1694" width="51" height="66" as="geometry" />
        </mxCell>
        <mxCell id="P3jrlNCNbD_zV1xF18dy-36" value="" style="shape=flexArrow;endArrow=classic;html=1;rounded=0;fontSize=18;fillColor=#008a00;strokeColor=#005700;" edge="1" parent="1">
          <mxGeometry width="50" height="50" relative="1" as="geometry">
            <mxPoint x="98.5" y="1764" as="sourcePoint" />
            <mxPoint x="125.5" y="1792" as="targetPoint" />
          </mxGeometry>
        </mxCell>
        <mxCell id="P3jrlNCNbD_zV1xF18dy-37" value="2" style="whiteSpace=wrap;html=1;shape=mxgraph.basic.document;fontSize=18;fillColor=#a20025;strokeColor=#6F0000;fontColor=#ffffff;" vertex="1" parent="1">
          <mxGeometry x="120" y="1673" width="51" height="66" as="geometry" />
        </mxCell>
        <mxCell id="P3jrlNCNbD_zV1xF18dy-38" value="" style="shape=flexArrow;endArrow=classic;html=1;rounded=0;fontSize=18;fillColor=#008a00;strokeColor=#005700;" edge="1" parent="1">
          <mxGeometry width="50" height="50" relative="1" as="geometry">
            <mxPoint x="145.5" y="1743" as="sourcePoint" />
            <mxPoint x="172.5" y="1771" as="targetPoint" />
          </mxGeometry>
        </mxCell>
        <mxCell id="P3jrlNCNbD_zV1xF18dy-39" value="3" style="whiteSpace=wrap;html=1;shape=mxgraph.basic.document;fontSize=18;fillColor=#a20025;strokeColor=#6F0000;fontColor=#ffffff;" vertex="1" parent="1">
          <mxGeometry x="168" y="1650" width="51" height="66" as="geometry" />
        </mxCell>
        <mxCell id="P3jrlNCNbD_zV1xF18dy-40" value="" style="shape=flexArrow;endArrow=classic;html=1;rounded=0;fontSize=18;fillColor=#008a00;strokeColor=#005700;" edge="1" parent="1">
          <mxGeometry width="50" height="50" relative="1" as="geometry">
            <mxPoint x="192.5" y="1720" as="sourcePoint" />
            <mxPoint x="219.5" y="1748" as="targetPoint" />
          </mxGeometry>
        </mxCell>
        <mxCell id="P3jrlNCNbD_zV1xF18dy-43" value="&lt;font color=&quot;#ffffff&quot;&gt;&#39;苹果&#39;&lt;/font&gt;" style="text;html=1;resizable=0;autosize=1;align=center;verticalAlign=middle;points=[];fillColor=none;strokeColor=none;rounded=0;fontSize=17;fontColor=#000000;" vertex="1" parent="1">
          <mxGeometry x="139.5" y="1818" width="60" height="30" as="geometry" />
        </mxCell>
        <mxCell id="P3jrlNCNbD_zV1xF18dy-44" value="&lt;font color=&quot;#ffffff&quot;&gt;‘橘子’&lt;/font&gt;" style="text;html=1;resizable=0;autosize=1;align=center;verticalAlign=middle;points=[];fillColor=none;strokeColor=none;rounded=0;fontSize=17;fontColor=#000000;" vertex="1" parent="1">
          <mxGeometry x="184.5" y="1798" width="60" height="30" as="geometry" />
        </mxCell>
        <mxCell id="P3jrlNCNbD_zV1xF18dy-45" value="&lt;font color=&quot;#ffffff&quot;&gt;‘草莓’&lt;/font&gt;" style="text;html=1;resizable=0;autosize=1;align=center;verticalAlign=middle;points=[];fillColor=none;strokeColor=none;rounded=0;fontSize=17;fontColor=#000000;" vertex="1" parent="1">
          <mxGeometry x="227" y="1777" width="60" height="30" as="geometry" />
        </mxCell>
        <mxCell id="P3jrlNCNbD_zV1xF18dy-46" value="&lt;font color=&quot;#ffffff&quot;&gt;a[3]&lt;/font&gt;" style="text;html=1;resizable=0;autosize=1;align=center;verticalAlign=middle;points=[];fillColor=none;strokeColor=none;rounded=0;fontSize=17;fontColor=#000000;" vertex="1" parent="1">
          <mxGeometry x="282.5" y="1761" width="40" height="30" as="geometry" />
        </mxCell>
        <mxCell id="P3jrlNCNbD_zV1xF18dy-47" value="&lt;font color=&quot;#ffffff&quot;&gt;a&lt;/font&gt;" style="text;html=1;resizable=0;autosize=1;align=center;verticalAlign=middle;points=[];fillColor=none;strokeColor=none;rounded=0;fontSize=17;fontColor=#000000;" vertex="1" parent="1">
          <mxGeometry x="116.5" y="1821" width="20" height="30" as="geometry" />
        </mxCell>
      </root>
    </mxGraphModel>
  </diagram>
</mxfile>
